HIERARCHY
ROOT Pelvis
{
	OFFSET 0.000000 0.000000 0.000000
	CHANNELS 6 Xposition Yposition Zposition Xrotation Yrotation Zrotation
	JOINT LeftUpLeg_virtual
	{
		OFFSET 0.000000 0.000000 0.000000
		CHANNELS 3 Xrotation Yrotation Zrotation
		JOINT LeftUpLeg
		{
			OFFSET 18.735201 -5.666702 -4.541200
			CHANNELS 3 Xrotation Yrotation Zrotation
			JOINT LeftLeg
			{
				OFFSET -0.021200 -31.938179 0.493100
				CHANNELS 3 Xrotation Yrotation Zrotation
				JOINT LeftFoot
				{
					OFFSET 0.021200 -31.938179 -4.336299
					CHANNELS 3 Xrotation Yrotation Zrotation
					JOINT LeftToeBase
					{
						OFFSET 0.943001 -26.722000 15.023500
						CHANNELS 3 Xrotation Yrotation Zrotation
						End Site
						{
							OFFSET 0 0 0
						}
					}
				}
			}
		}
	}
	JOINT RightUpLeg_virtual
	{
		OFFSET 0.000000 0.000000 0.000000
		CHANNELS 3 Xrotation Yrotation Zrotation
		JOINT RightUpLeg
		{
			OFFSET -18.735201 -5.666702 -4.541200
			CHANNELS 3 Xrotation Yrotation Zrotation
			JOINT RightLeg
			{
				OFFSET 0.018946 -31.938133 0.493100
				CHANNELS 3 Xrotation Yrotation Zrotation
				JOINT RightFoot
				{
					OFFSET -0.018946 -31.938126 -4.336299
					CHANNELS 3 Xrotation Yrotation Zrotation
					JOINT RightToeBase
					{
						OFFSET -0.943001 -26.722004 15.023500
						CHANNELS 3 Xrotation Yrotation Zrotation
						End Site
						{
							OFFSET 0 0 0
						}
					}
				}
			}
		}
	}
	JOINT Hips_virtual
	{
		OFFSET 0.000000 0.000000 0.000000
		CHANNELS 3 Xrotation Yrotation Zrotation
		JOINT Hips
		{
			OFFSET -0.000000 -0.000000 -0.000000
			CHANNELS 3 Xrotation Yrotation Zrotation
			JOINT Spine
			{
				OFFSET 0.000000 10.199997 -0.299500
				CHANNELS 3 Xrotation Yrotation Zrotation
				JOINT Spine1
				{
					OFFSET 0.000000 11.900002 -1.516600
					CHANNELS 3 Xrotation Yrotation Zrotation
					JOINT Spine2
					{
						OFFSET 0.000000 13.600006 -2.842500
						CHANNELS 3 Xrotation Yrotation Zrotation
						JOINT Neck_virtual
						{
							OFFSET 0.000000 0.000000 0.000000
							CHANNELS 3 Xrotation Yrotation Zrotation
							JOINT Neck
							{
								OFFSET 0.000000 9.624100 -2.890100
								CHANNELS 3 Xrotation Yrotation Zrotation
								JOINT Head
								{
									OFFSET 0.000000 14.068802 -1.351900
									CHANNELS 3 Xrotation Yrotation Zrotation
									End Site
									{
										OFFSET 0 0 0
									}
								}
							}
						}
						JOINT LeftShoulder_virtual
						{
							OFFSET 0.000000 0.000000 0.000000
							CHANNELS 3 Xrotation Yrotation Zrotation
							JOINT LeftShoulder
							{
								OFFSET 15.263000 10.923401 -0.547700
								CHANNELS 3 Xrotation Yrotation Zrotation
								JOINT LeftArm
								{
									OFFSET 25.438599 -2.830597 -13.032500
									CHANNELS 3 Xrotation Yrotation Zrotation
									JOINT LeftForeArm
									{
										OFFSET 29.960503 0.000000 0.000000
										CHANNELS 3 Xrotation Yrotation Zrotation
										JOINT LeftHand
										{
											OFFSET 27.849251 0.000000 0.000000
											CHANNELS 3 Xrotation Yrotation Zrotation
											End Site
											{
												OFFSET 0 0 0
											}
										}
									}
								}
							}
						}
						JOINT RightShoulder_virtual
						{
							OFFSET 0.000000 0.000000 0.000000
							CHANNELS 3 Xrotation Yrotation Zrotation
							JOINT RightShoulder
							{
								OFFSET -15.263000 10.923401 -0.547700
								CHANNELS 3 Xrotation Yrotation Zrotation
								JOINT RightArm
								{
									OFFSET -25.438599 -2.830597 -13.032500
									CHANNELS 3 Xrotation Yrotation Zrotation
									JOINT RightForeArm
									{
										OFFSET -29.960503 0.000000 0.000000
										CHANNELS 3 Xrotation Yrotation Zrotation
										JOINT RightHand
										{
											OFFSET -27.849251 0.000000 0.000000
											CHANNELS 3 Xrotation Yrotation Zrotation
											End Site
											{
												OFFSET 0 0 0
											}
										}
									}
								}
							}
						}
					}
				}
			}
		}
	}
}
MOTION
Frames: 8
Frame Time: 0.03333333
-2.687419 87.156288 1.648769 0.000000 0.000000 0.000000 -2.130983 -41.499386 -2.692773 -43.793455 -0.323458 12.678371 44.418919 -7.527701 0.009754 -6.607569 -7.855654 -10.230922 0.000000 0.000000 0.000000 14.282244 -40.107557 5.044518 -16.121471 -17.931675 -17.078729 34.128013 -1.652802 1.005283 -17.691817 -6.328580 12.008752 0.000000 0.000000 0.000000 1.523136 -9.183586 -0.954461 -17.844597 -41.248482 -9.377885 15.292129 10.323007 -2.641470 7.653429 6.368402 -1.772670 0.000000 0.000000 0.000000 8.249066 5.715149 -2.023186 1.315961 1.993968 -0.208655 0.000000 0.000000 0.000000 8.894777 7.021143 -2.477346 3.924554 5.301501 -8.193534 1.841638 -10.689329 -55.925234 2.425992 -44.086914 -5.059224 0.000000 0.000000 0.000000 8.805173 5.979385 -0.142062 1.393566 18.034100 7.964900 -9.652590 -0.720421 46.978185 -2.740096 34.734988 7.993591 0.000000 0.000000 0.000000 
-2.134174 87.496658 0.806150 0.000000 0.000000 0.000000 -2.278741 -40.557458 -2.681221 -44.151497 -0.086022 12.876079 44.515382 -7.732532 0.373937 -6.160978 -8.358335 -9.851830 0.000000 0.000000 0.000000 14.089674 -39.802258 4.835116 -15.971074 -17.854046 -17.027115 33.553649 -0.748932 1.255374 -18.280825 -5.709912 12.888406 0.000000 0.000000 0.000000 -0.197400 -6.190445 -2.676930 -8.983555 -42.996177 -4.801923 14.142377 10.693284 -2.893772 7.235136 6.651098 -1.728520 0.000000 0.000000 0.000000 7.908975 5.792722 -2.400703 1.226640 1.973074 -0.062688 0.000000 0.000000 0.000000 8.637602 7.195931 -2.429399 3.851992 4.793551 -7.503443 -0.159191 -9.911685 -56.817489 4.183238 -45.780285 -3.014830 0.000000 0.000000 0.000000 9.198720 6.334046 -0.821187 2.836374 16.828724 7.599819 -7.679896 -2.778079 46.313471 -3.356078 33.380781 8.412169 0.000000 0.000000 0.000000 
-2.826907 87.343903 -0.586969 0.000000 0.000000 0.000000 -2.441009 -37.967557 -2.329685 -44.693947 0.420321 13.508588 45.215941 -8.072217 0.625170 -5.329915 -8.933016 -9.772072 0.000000 0.000000 0.000000 14.613152 -39.137940 5.507468 -15.289496 -17.836520 -16.270861 32.851178 -0.416456 1.216770 -18.971247 -5.455564 12.971229 0.000000 0.000000 0.000000 0.933690 -4.273133 -1.906058 -8.913872 -44.144274 -4.782263 13.640355 10.650408 -3.087588 6.265071 6.768895 -1.596430 0.000000 0.000000 0.000000 8.559956 5.980109 -2.129691 1.205984 1.854438 0.098360 0.000000 0.000000 0.000000 9.305146 8.015609 -2.335384 3.774641 3.708452 -7.829973 -0.569310 -8.576643 -59.743316 4.744675 -44.991641 -2.999808 0.000000 0.000000 0.000000 9.675824 6.821346 -1.193763 3.412052 16.456521 7.823294 -5.697039 -0.848347 47.158860 -2.718739 29.651186 7.303631 0.000000 0.000000 0.000000 
-2.267787 86.903419 -0.804953 0.000000 0.000000 0.000000 -2.843471 -35.678989 -1.647857 -45.553370 0.595191 14.492936 45.907566 -7.723700 0.672501 -4.378137 -8.729568 -9.504757 0.000000 0.000000 0.000000 13.002153 -38.266698 5.015299 -16.761055 -17.306132 -16.018107 31.804769 -0.019657 0.836249 -19.665672 -4.964673 12.581154 0.000000 0.000000 0.000000 0.809599 -2.380857 -2.283694 -7.187829 -42.845435 -4.759708 12.765961 10.248765 -2.085971 6.820736 6.897796 -1.997865 0.000000 0.000000 0.000000 9.059847 5.924111 -2.277808 1.271875 1.984086 0.047598 0.000000 0.000000 0.000000 10.657291 7.776459 -2.476005 3.551482 2.156645 -6.826627 -0.304395 -10.550992 -60.421732 4.013394 -45.647421 -3.030927 0.000000 0.000000 0.000000 11.103682 7.006231 -1.647236 3.165853 14.826218 8.391385 -3.070934 -1.444575 47.555834 -1.426587 33.711898 7.078763 0.000000 0.000000 0.000000 
-1.975144 86.427483 -1.416019 0.000000 0.000000 0.000000 -2.756083 -34.692276 -1.190528 -46.083857 0.752287 15.213589 46.586210 -7.212842 0.793838 -3.679694 -8.312701 -8.974463 0.000000 0.000000 0.000000 13.099518 -37.751289 5.318953 -16.875015 -17.202028 -15.690193 33.021021 0.385009 0.170017 -19.194278 -4.205381 11.873990 0.000000 0.000000 0.000000 2.845110 -0.946825 -2.905950 -9.609615 -42.261577 -6.268251 14.082970 10.008742 -2.129242 7.018767 6.479850 -1.618002 0.000000 0.000000 0.000000 9.356932 5.689998 -2.186189 1.106203 1.584680 0.185148 0.000000 0.000000 0.000000 10.948996 7.647607 -2.468022 3.735763 2.162218 -6.605992 2.616555 -9.511492 -59.873739 4.573049 -46.054866 -2.557571 0.000000 0.000000 0.000000 11.506383 6.979469 -1.605039 3.448100 13.926243 9.108518 -0.872846 -1.244183 46.009391 0.072471 33.726183 5.957708 0.000000 0.000000 0.000000 
-1.886510 85.661209 -1.743803 0.000000 0.000000 0.000000 -3.780958 -34.067519 -1.161130 -47.301037 0.589740 15.544990 47.642622 -7.130492 1.174525 -2.517949 -8.531088 -8.363886 0.000000 0.000000 0.000000 11.784333 -37.265785 5.254940 -18.264855 -16.872206 -15.202389 33.264742 0.351310 -0.488714 -19.032478 -3.855048 10.872671 0.000000 0.000000 0.000000 1.203755 -4.683635 -2.193273 -6.116848 -36.810488 -6.149324 13.707470 8.732202 -1.331080 7.898582 6.040532 -1.518044 0.000000 0.000000 0.000000 9.481196 5.464075 -1.908190 1.358207 1.419153 0.282859 0.000000 0.000000 0.000000 10.894648 7.551196 -2.465920 3.524572 1.631643 -6.149676 3.915586 -9.741965 -60.368757 5.290913 -46.153371 -2.410310 0.000000 0.000000 0.000000 12.360331 6.695305 -1.829306 3.483706 12.811914 8.284176 -1.494997 1.098339 44.361986 1.881305 33.432437 4.291015 0.000000 0.000000 0.000000 
-2.850612 85.126015 -2.247192 0.000000 0.000000 0.000000 -5.046688 -32.074637 -1.777327 -48.986520 1.064317 15.536532 48.895750 -6.651061 1.553254 -1.316527 -8.309851 -7.481186 0.000000 0.000000 0.000000 11.842004 -36.717021 5.976542 -18.288808 -16.824136 -14.292196 35.174713 1.129093 -0.913777 -17.948045 -2.848343 10.804478 0.000000 0.000000 0.000000 4.370668 -4.542536 -0.991699 -6.207649 -36.628255 -7.210343 14.543211 9.002416 -1.041620 8.829331 5.379238 -1.291484 0.000000 0.000000 0.000000 9.369694 5.478038 -1.755084 0.974343 1.231862 0.247902 0.000000 0.000000 0.000000 11.179874 7.584585 -2.163906 3.712951 0.685961 -5.673100 7.032716 -9.081834 -60.130691 5.539895 -47.934787 -2.640764 0.000000 0.000000 0.000000 12.176410 6.834671 -1.857399 3.100326 10.869818 7.819711 2.874937 2.920236 43.560693 3.990442 33.902955 3.054382 0.000000 0.000000 0.000000 
-2.766847 84.686317 -2.028433 0.000000 0.000000 0.000000 -5.639994 -30.531639 -1.900773 -50.231431 1.422524 15.906527 50.462063 -6.164584 1.889063 -0.185976 -7.976496 -6.690153 0.000000 0.000000 0.000000 11.313027 -36.422824 5.596293 -19.114672 -16.596243 -14.642717 36.772007 1.507219 -2.226173 -17.152021 -1.702796 9.169713 0.000000 0.000000 0.000000 6.224525 -2.888877 -0.974384 -9.366118 -37.298816 -7.737127 15.837532 8.707513 -1.031341 8.756916 5.308577 -1.615624 0.000000 0.000000 0.000000 10.039105 5.512516 -2.042412 0.917665 0.829199 0.362254 0.000000 0.000000 0.000000 11.651644 7.142696 -2.119307 3.150687 -0.118844 -4.804986 8.397362 -7.284380 -63.220846 4.172493 -50.823465 -3.454663 0.000000 0.000000 0.000000 12.956413 6.705271 -2.224614 2.421965 9.307115 8.975883 5.142847 4.793612 40.901331 4.956667 35.413137 1.747992 0.000000 0.000000 0.000000 
